<mxfile host="app.diagrams.net" agent="Mozilla/5.0 (Windows NT 10.0; Win64; x64) AppleWebKit/537.36 (KHTML, like Gecko) Chrome/131.0.0.0 Safari/537.36 Edg/131.0.0.0" version="25.0.3">
  <diagram name="Page-1" id="jfDPjmeBoqaj9LgaB9-a">
    <mxGraphModel dx="623" dy="350" grid="1" gridSize="10" guides="1" tooltips="1" connect="1" arrows="1" fold="1" page="1" pageScale="1" pageWidth="600" pageHeight="360" background="#ffffff" math="0" shadow="0">
      <root>
        <mxCell id="0" />
        <mxCell id="1" parent="0" />
        <mxCell id="vxsfNnPH6Yml3z-2CLUS-1" value=":FMU 1" style="shape=umlLifeline;perimeter=lifelinePerimeter;whiteSpace=wrap;html=1;container=1;dropTarget=0;collapsible=0;recursiveResize=0;outlineConnect=0;portConstraint=eastwest;newEdgeStyle={&quot;edgeStyle&quot;:&quot;elbowEdgeStyle&quot;,&quot;elbow&quot;:&quot;vertical&quot;,&quot;curved&quot;:0,&quot;rounded&quot;:0};" parent="1" vertex="1">
          <mxGeometry x="19" y="40" width="100" height="250" as="geometry" />
        </mxCell>
        <mxCell id="vxsfNnPH6Yml3z-2CLUS-2" value=":Bus Simulation" style="shape=umlLifeline;perimeter=lifelinePerimeter;whiteSpace=wrap;html=1;container=1;dropTarget=0;collapsible=0;recursiveResize=0;outlineConnect=0;portConstraint=eastwest;newEdgeStyle={&quot;edgeStyle&quot;:&quot;elbowEdgeStyle&quot;,&quot;elbow&quot;:&quot;vertical&quot;,&quot;curved&quot;:0,&quot;rounded&quot;:0};" parent="1" vertex="1">
          <mxGeometry x="280" y="40" width="100" height="250" as="geometry" />
        </mxCell>
        <mxCell id="vxsfNnPH6Yml3z-2CLUS-3" value=":FMU 3" style="shape=umlLifeline;perimeter=lifelinePerimeter;whiteSpace=wrap;html=1;container=1;dropTarget=0;collapsible=0;recursiveResize=0;outlineConnect=0;portConstraint=eastwest;newEdgeStyle={&quot;edgeStyle&quot;:&quot;elbowEdgeStyle&quot;,&quot;elbow&quot;:&quot;vertical&quot;,&quot;curved&quot;:0,&quot;rounded&quot;:0};" parent="1" vertex="1">
          <mxGeometry x="400" y="40" width="100" height="250" as="geometry" />
        </mxCell>
        <mxCell id="vxsfNnPH6Yml3z-2CLUS-4" value="Transmit(1)" style="html=1;verticalAlign=bottom;endArrow=block;edgeStyle=elbowEdgeStyle;elbow=vertical;curved=0;rounded=0;" parent="1" edge="1">
          <mxGeometry x="-0.4985" y="-1" width="80" relative="1" as="geometry">
            <mxPoint x="69.16666666666669" y="120" as="sourcePoint" />
            <mxPoint x="329.5" y="120" as="targetPoint" />
            <Array as="points">
              <mxPoint x="270" y="120" />
              <mxPoint x="290" y="120" />
              <mxPoint x="150" y="120" />
            </Array>
            <mxPoint as="offset" />
          </mxGeometry>
        </mxCell>
        <mxCell id="vxsfNnPH6Yml3z-2CLUS-5" value="Transmit(1)" style="html=1;verticalAlign=bottom;endArrow=block;edgeStyle=elbowEdgeStyle;elbow=vertical;curved=0;rounded=0;" parent="1" edge="1">
          <mxGeometry width="80" relative="1" as="geometry">
            <mxPoint x="320" y="224" as="sourcePoint" />
            <mxPoint x="450" y="224" as="targetPoint" />
            <Array as="points">
              <mxPoint x="340" y="224" />
              <mxPoint x="390" y="224" />
            </Array>
            <mxPoint as="offset" />
          </mxGeometry>
        </mxCell>
        <mxCell id="vxsfNnPH6Yml3z-2CLUS-6" value="Confirm(1)" style="html=1;verticalAlign=bottom;endArrow=block;edgeStyle=elbowEdgeStyle;elbow=vertical;curved=0;rounded=0;" parent="1" target="vxsfNnPH6Yml3z-2CLUS-1" edge="1">
          <mxGeometry x="0.4985" width="80" relative="1" as="geometry">
            <mxPoint x="329.5" y="224" as="sourcePoint" />
            <mxPoint x="89.92857142857144" y="224" as="targetPoint" />
            <Array as="points">
              <mxPoint x="240" y="224" />
              <mxPoint x="170" y="204" />
              <mxPoint x="280" y="214" />
              <mxPoint x="300" y="214" />
              <mxPoint x="270" y="194" />
            </Array>
            <mxPoint as="offset" />
          </mxGeometry>
        </mxCell>
        <mxCell id="vxsfNnPH6Yml3z-2CLUS-7" value=":FMU 2" style="shape=umlLifeline;perimeter=lifelinePerimeter;whiteSpace=wrap;html=1;container=1;dropTarget=0;collapsible=0;recursiveResize=0;outlineConnect=0;portConstraint=eastwest;newEdgeStyle={&quot;edgeStyle&quot;:&quot;elbowEdgeStyle&quot;,&quot;elbow&quot;:&quot;vertical&quot;,&quot;curved&quot;:0,&quot;rounded&quot;:0};" parent="1" vertex="1">
          <mxGeometry x="139" y="40" width="100" height="250" as="geometry" />
        </mxCell>
        <mxCell id="vxsfNnPH6Yml3z-2CLUS-8" value="Transmit(2)" style="html=1;verticalAlign=bottom;endArrow=block;edgeStyle=elbowEdgeStyle;elbow=vertical;curved=0;rounded=0;" parent="1" source="vxsfNnPH6Yml3z-2CLUS-7" edge="1">
          <mxGeometry width="80" relative="1" as="geometry">
            <mxPoint x="209.92857142857144" y="150" as="sourcePoint" />
            <mxPoint x="330" y="150" as="targetPoint" />
            <Array as="points">
              <mxPoint x="290" y="150" />
              <mxPoint x="280" y="140" />
              <mxPoint x="300" y="140" />
              <mxPoint x="160" y="140" />
            </Array>
          </mxGeometry>
        </mxCell>
        <mxCell id="vxsfNnPH6Yml3z-2CLUS-9" value="Bus Error(MediumBusy)" style="html=1;verticalAlign=bottom;endArrow=block;edgeStyle=elbowEdgeStyle;elbow=vertical;curved=0;rounded=0;" parent="1" target="vxsfNnPH6Yml3z-2CLUS-7" edge="1">
          <mxGeometry x="-0.0095" width="80" relative="1" as="geometry">
            <mxPoint x="330" y="190" as="sourcePoint" />
            <mxPoint x="189.16666666666669" y="169" as="targetPoint" />
            <Array as="points">
              <mxPoint x="300" y="187" />
              <mxPoint x="290" y="187" />
              <mxPoint x="310" y="257" />
              <mxPoint x="290" y="267" />
              <mxPoint x="170" y="227" />
              <mxPoint x="280" y="237" />
              <mxPoint x="300" y="237" />
              <mxPoint x="270" y="217" />
            </Array>
            <mxPoint as="offset" />
          </mxGeometry>
        </mxCell>
        <mxCell id="vxsfNnPH6Yml3z-2CLUS-10" value="Transmit(1)" style="html=1;verticalAlign=bottom;endArrow=block;edgeStyle=elbowEdgeStyle;elbow=vertical;curved=0;rounded=0;" parent="1" source="vxsfNnPH6Yml3z-2CLUS-2" target="vxsfNnPH6Yml3z-2CLUS-7" edge="1">
          <mxGeometry x="0.1407" width="80" relative="1" as="geometry">
            <mxPoint x="329.5" y="235" as="sourcePoint" />
            <mxPoint x="209.92857142857144" y="235" as="targetPoint" />
            <Array as="points">
              <mxPoint x="240" y="260" />
              <mxPoint x="270" y="235" />
              <mxPoint x="270" y="225" />
              <mxPoint x="290" y="215" />
              <mxPoint x="250" y="225" />
            </Array>
            <mxPoint as="offset" />
          </mxGeometry>
        </mxCell>
        <mxCell id="vxsfNnPH6Yml3z-2CLUS-11" value="T&lt;sub&gt;transmit&lt;/sub&gt;" style="endArrow=classic;startArrow=classic;html=1;rounded=0;fillColor=#f5f5f5;strokeColor=#666666;" parent="1" edge="1">
          <mxGeometry x="0.02" y="-23" width="50" height="50" relative="1" as="geometry">
            <mxPoint x="536" y="221" as="sourcePoint" />
            <mxPoint x="536" y="121" as="targetPoint" />
            <mxPoint as="offset" />
          </mxGeometry>
        </mxCell>
        <mxCell id="vxsfNnPH6Yml3z-2CLUS-12" value="" style="endArrow=none;dashed=1;html=1;rounded=0;fillColor=#f5f5f5;strokeColor=#666666;" parent="1" edge="1">
          <mxGeometry width="50" height="50" relative="1" as="geometry">
            <mxPoint x="329.92857142857144" y="120" as="sourcePoint" />
            <mxPoint x="538" y="120" as="targetPoint" />
          </mxGeometry>
        </mxCell>
        <mxCell id="vxsfNnPH6Yml3z-2CLUS-13" value="" style="endArrow=none;dashed=1;html=1;rounded=0;fillColor=#f5f5f5;strokeColor=#666666;" parent="1" edge="1">
          <mxGeometry width="50" height="50" relative="1" as="geometry">
            <mxPoint x="449.92857142857144" y="224" as="sourcePoint" />
            <mxPoint x="538" y="224" as="targetPoint" />
            <Array as="points" />
          </mxGeometry>
        </mxCell>
      </root>
    </mxGraphModel>
  </diagram>
</mxfile>
